<?xml version="1.0" encoding="UTF-8"?><svg id="a" xmlns="http://www.w3.org/2000/svg" viewBox="0 0 226.71 118.91"><defs><style>.d{fill:#fecf17;}.e{fill:#2db34a;}.f{fill:#86c440;}.g{fill:#ef3e23;}.h{fill:#f47721;}.i{fill:#231f20;}</style></defs><g id="b"><path class="e" d="M183.92,110.89h42.79c-.5-23.06-7.88-44.42-20.17-62.11l-34.6,25.14c7.17,10.62,11.51,23.31,11.99,36.97Z"/><path class="d" d="M113.35,42.76c6.74,0,13.26,.97,19.43,2.73l13.23-40.7C135.67,1.68,124.71,0,113.35,0s-22.32,1.68-32.66,4.78l13.23,40.7c6.18-1.76,12.69-2.73,19.43-2.73Z"/><path class="f" d="M168.98,69.88l34.62-25.15c-13.34-17.5-31.65-31.01-52.82-38.41l-13.22,40.68c12.51,4.56,23.36,12.58,31.43,22.87Z"/><path class="h" d="M89.16,47.01L75.94,6.33c-21.18,7.4-39.49,20.9-52.82,38.41l34.62,25.15c8.06-10.3,18.91-18.31,31.43-22.87Z"/><path class="g" d="M54.77,73.92L20.17,48.78C7.88,66.47,.5,87.83,0,110.89H42.79c.48-13.67,4.82-26.35,11.99-36.97Z"/></g><path id="c" class="i" d="M115.26,16.86l-10.13,91.91c0,5.6,4.54,10.13,10.13,10.13s10.13-4.54,10.13-10.13l-10.13-91.91Zm0,97.87c-3.29,0-5.96-2.67-5.96-5.96s2.67-5.96,5.96-5.96,5.96,2.67,5.96,5.96-2.67,5.96-5.96,5.96Z"/><circle class="i" cx="115.26" cy="109.1" r="1.9"/></svg>